<svg width="37" height="21" viewBox="0 0 37 21" fill="none" xmlns="http://www.w3.org/2000/svg">
<path d="M0 0H37V21L18.5 17.325L0 21V0Z" fill="#4369FF"/>
<path d="M7.02352 13.14H10.6735C11.8135 13.14 12.7435 12.08 12.7435 10.97C12.7435 10.26 12.3635 9.58 11.7935 9.22C11.7435 9.18 11.6935 9.15 11.6335 9.11C12.0235 8.75 12.2735 8.26 12.2735 7.68C12.2735 6.61 11.3035 5.64 10.2135 5.64H7.02352V13.14ZM8.38352 11.8V9.96H10.4535C10.9535 9.96 11.3835 10.32 11.3835 10.97C11.3835 11.53 10.9135 11.8 10.4535 11.8H8.38352ZM8.38352 8.62V6.98H10.0435C10.5835 6.98 10.9335 7.32 10.9335 7.79C10.9335 8.25 10.5335 8.6 10.0835 8.62H8.38352ZM18.9111 5.64H13.6811V13.14H18.9111V11.8H15.0411V9.95H18.3811V8.61H15.0411V6.98H18.9111V5.64ZM21.1237 11.08L19.8737 11.61C20.3537 12.73 21.5137 13.4 22.8037 13.35C25.4737 13.28 26.2137 9.79 23.6037 8.95C23.0937 8.77 22.4237 8.58 21.8737 8.21C21.3737 7.87 21.4237 7.54 21.5537 7.22C21.7237 6.87 22.1837 6.77 22.5937 6.8C23.0637 6.83 23.4337 6.95 23.7037 7.32L24.8137 6.54C24.2537 5.75 23.3537 5.49 22.7037 5.44C21.9137 5.38 20.7637 5.71 20.3237 6.63C19.9037 7.51 20.0737 8.63 21.1237 9.34C21.8537 9.83 22.6837 10.06 23.1537 10.23C24.3637 10.61 23.9237 11.96 22.7537 11.99C21.9237 12.02 21.3937 11.71 21.1237 11.08ZM31.18 5.64H25.72V6.98H27.79V13.14H29.15V6.98H31.18V5.64Z" fill="white"/>
</svg>
