<svg width="390" height="567" viewBox="0 0 390 567" fill="none" xmlns="http://www.w3.org/2000/svg">
<g opacity="0.06" clip-path="url(#clip0_2253_9467)">
<path d="M439.748 432.394C441.989 411.009 435.687 389.721 422.233 372.869C407.881 354.905 389.063 342.553 367.324 335.31C344.618 327.728 319.826 326.806 296.105 328.336C282.153 329.233 268.2 330.837 254.303 332.977C254.318 332.884 254.334 332.79 254.349 332.697C255.72 322.457 257.717 312.309 260.178 302.304C261.517 296.87 263.003 291.479 264.634 286.13C265.407 283.569 266.247 281.009 267.114 278.463C267.54 277.203 267.98 275.916 268.433 274.67C268.504 274.471 268.772 273.769 268.942 273.252C269.126 272.775 269.337 272.245 269.38 272.099C273.344 261.67 277.972 251.454 283.324 241.654C286.098 236.569 289.043 231.607 292.199 226.756C292.915 225.649 293.672 224.529 294.415 223.436C294.774 222.882 295.159 222.343 295.543 221.803C295.571 221.75 295.736 221.5 295.914 221.29C296.08 221.039 296.271 220.803 296.299 220.75C296.684 220.21 297.095 219.684 297.48 219.144C298.399 217.908 299.345 216.685 300.305 215.435C307.281 206.522 315.032 198.251 323.54 190.784C324.165 190.235 324.817 189.701 325.442 189.153C325.767 188.919 326.474 188.279 326.569 188.227C328.428 186.742 330.366 185.299 332.276 183.908C336.177 181.102 340.182 178.485 344.329 176.044C348.287 173.706 352.363 171.531 356.541 169.544C356.621 169.519 356.689 169.454 356.784 169.402C356.864 169.377 356.945 169.352 357.08 169.288C358.116 168.855 359.1 168.394 360.123 167.987C362.506 166.98 364.914 166.053 367.32 165.193C371.636 163.65 376.028 162.282 380.469 161.142C382.602 160.611 384.735 160.079 386.893 159.628C387.202 159.554 390.032 158.85 390.123 158.998C390.123 158.998 387.364 159.437 389.051 159.177C389.774 159.085 390.484 158.952 391.22 158.833C400.404 157.454 409.647 157.118 418.925 157.61C419.059 157.613 419.152 157.628 419.259 157.616C419.312 157.644 419.352 157.632 419.419 157.633C420.497 157.761 421.589 157.863 422.654 158.018C424.997 158.305 427.325 158.685 429.651 159.132C434.132 159.969 438.552 161.112 442.888 162.48C450.354 164.819 459.359 158.523 460.646 151.071C462.129 142.542 457.25 135.796 449.253 133.313C408.993 120.721 364.34 129.631 328.539 150.747C287.537 174.965 258.744 216.156 242.292 260.156C232.873 285.324 226.216 311.841 223.851 338.658C205.499 342.605 187.368 347.478 169.634 353.199C129.233 366.266 90.1645 384.047 53.7218 405.872C17.0902 427.8 -17.0555 454.103 -47.6692 483.882C-54.9141 490.934 -61.977 498.217 -68.8035 505.691C-74.0867 511.447 -74.2936 521.524 -68.129 526.788C-62.0436 532.009 -52.6662 532.25 -47.0413 526.1C-33.6215 511.467 -19.4164 497.583 -4.44124 484.543C-2.68794 483.003 -0.908245 481.476 0.883978 479.99C1.78009 479.246 2.64977 478.489 3.55976 477.72C3.9946 477.341 4.4559 476.977 4.89074 476.598C4.99911 476.52 5.32557 476.219 5.65068 475.986C6.18002 475.556 7.0761 474.812 7.30674 474.63C8.20285 473.887 9.12536 473.158 10.0479 472.428C12.0291 470.839 14.0228 469.29 16.0165 467.74C23.8551 461.675 31.8633 455.799 40.0536 450.155C56.394 438.878 73.3433 428.494 90.8334 419.069C99.5785 414.356 108.439 409.873 117.401 405.646C118.465 405.16 119.503 404.66 120.568 404.173C120.783 404.084 120.877 404.033 121.012 403.969C121.133 403.931 121.187 403.892 121.362 403.815C123.666 402.767 125.982 401.758 128.312 400.723C132.77 398.782 137.266 396.896 141.761 395.076C160.172 387.619 178.962 381.171 198.064 375.797C206.373 373.452 214.718 371.362 223.126 369.407C223.533 378.828 224.514 388.247 226.19 397.627C233.962 440.936 260.514 481.601 300.959 500.766C321.143 510.328 343.358 513.842 365.334 509.54C384.041 505.881 401.575 495.602 414.931 482.116C427.987 468.944 437.883 451.077 439.814 432.462L439.748 432.394ZM357.97 168.812C357.97 168.812 357.365 169.067 356.92 169.272C357.271 169.052 357.69 168.833 357.97 168.812ZM247.963 364.214C247.963 364.214 247.963 364.214 248.003 364.202C248.338 364.142 248.673 364.081 249.008 364.021C249.49 363.938 249.53 363.925 247.937 364.2L247.963 364.214ZM401.257 451.962C400.898 452.516 400.419 453.107 400.047 453.687C399.964 453.845 399.827 453.976 399.718 454.121C398.456 455.751 397.116 457.34 395.736 458.875C394.453 460.291 393.116 461.68 391.714 463.001C391.02 463.681 390.313 464.321 389.606 464.961C389.265 465.288 388.912 465.575 388.545 465.888C388.898 465.602 389.225 465.301 389.278 465.329C389.278 465.329 388.979 465.576 388.491 465.927C387.404 466.907 387.92 466.437 388.491 465.927C386.216 467.564 379.798 472.016 378.96 472.52C377.299 473.502 375.598 474.429 373.858 475.302C373.44 475.521 372.969 475.712 372.551 475.93C371.079 476.742 373.872 475.276 373.831 475.355C373.553 475.884 371.299 476.453 370.707 476.681C366.818 478.246 362.815 479.515 358.725 480.435C358.39 480.495 358.082 480.569 357.733 480.655C357.612 480.693 357.518 480.745 357.33 480.781C357.33 480.781 357.33 480.781 357.344 480.754C357.344 480.754 357.318 480.741 357.277 480.753C357.237 480.766 357.223 480.792 357.183 480.805C356.741 480.876 356.273 480.933 355.831 481.005C353.77 481.271 351.67 481.483 349.6 481.575C347.489 481.68 345.407 481.665 343.313 481.61C342.579 481.595 340.506 481.821 339.94 481.422C339.94 481.422 342.736 481.745 340.98 481.496C340.235 481.375 339.489 481.32 338.756 481.238C333.938 480.595 329.195 479.552 324.539 478.151C323.757 477.908 322.988 477.639 322.232 477.411C321.836 477.203 321.225 477.084 320.92 476.957C318.656 476.071 316.434 475.105 314.227 474.047C309.813 471.929 305.565 469.494 301.497 466.783C301.312 466.686 301.141 466.562 300.97 466.439C300.712 466.033 298.577 464.709 298.288 464.489C296.317 462.981 294.414 461.408 292.565 459.795C288.959 456.653 285.572 453.287 282.375 449.752C281.605 448.909 280.848 448.039 280.092 447.17C279.988 447.047 279.87 446.951 279.765 446.829C279.583 446.599 279.441 446.355 279.272 446.165C277.737 444.212 276.257 442.22 274.844 440.162C272.122 436.236 269.617 432.153 267.381 427.943C266.828 426.944 266.314 425.932 265.815 424.894C265.7 424.665 265.277 423.802 264.996 423.182C264.742 422.576 264.18 421.337 264.066 421.041C263.456 419.573 262.871 418.12 262.301 416.639C260.541 412.038 259.009 407.321 257.732 402.569C257.112 400.287 256.532 397.992 256.032 395.672C255.762 394.518 255.532 393.352 255.303 392.186C255.194 391.623 255.086 391.06 254.977 390.497C253.6 381.511 252.797 372.522 252.624 363.426C252.918 363.378 253.213 363.331 253.507 363.283C274.062 359.955 294.946 357.474 315.791 357.569C318.38 357.58 321.008 357.646 323.595 357.724C325.116 357.781 326.622 357.865 328.128 357.948C328.741 358 329.368 358.026 329.981 358.079C330.034 358.106 330.034 358.106 330.074 358.094C335.426 358.748 340.751 359.388 346.04 360.482C351.516 361.606 356.904 363.088 362.232 364.877C362.364 364.946 362.484 364.975 362.603 365.004C362.709 365.06 362.868 365.143 363.133 365.215C364.125 365.636 365.132 366.029 366.124 366.45C368.293 367.388 370.421 368.405 372.507 369.501C374.435 370.514 376.335 371.58 378.207 372.699C379.157 373.265 380.066 373.844 380.961 374.45C381.264 374.643 381.567 374.836 381.882 375.069C381.829 375.041 381.79 374.987 381.752 374.933C381.804 374.961 381.87 375.029 381.909 375.083C382.067 375.166 382.185 375.262 382.33 375.372C383.778 376.335 382.761 375.834 382.092 375.247C383.358 376.62 385.524 377.759 386.928 378.935C388.87 380.562 390.743 382.255 392.561 384.054C394.092 385.567 395.595 387.132 397.029 388.763C397.133 388.885 397.238 389.007 397.342 389.13C397.382 389.758 399.201 391.557 399.604 392.072C400.849 393.806 402.027 395.605 403.124 397.43C403.652 398.348 404.207 399.281 404.709 400.185C404.966 400.658 405.223 401.13 405.454 401.589C405.506 401.683 405.633 401.953 405.8 402.276C405.978 402.707 406.604 404.082 406.731 404.418C407.124 405.4 407.477 406.396 407.831 407.391C408.573 409.568 409.222 411.798 409.736 414.025C409.785 414.252 409.834 414.48 409.896 414.682C409.831 415.255 410.272 417.173 410.331 417.575C410.569 419.622 410.66 421.694 410.684 423.764C410.691 424.712 410.646 425.632 410.613 426.593C410.61 426.726 410.595 426.819 410.606 426.926C410.324 428.937 410.043 430.948 409.616 432.915C409.231 434.737 408.754 436.543 408.183 438.334C408.112 438.533 407.969 438.997 407.8 439.448C407.547 440.057 407.25 440.879 407.111 441.143C405.513 444.89 403.557 448.483 401.351 451.91L401.257 451.962Z" fill="#F7F8F8"/>
<path d="M381.883 375.136C381.962 375.177 381.987 375.258 382.066 375.299C382.013 375.272 381.948 375.204 381.883 375.136Z" fill="#F7F8F8"/>
<path d="M357.424 480.797C357.424 480.797 357.652 480.748 357.799 480.724C358.296 480.547 358.06 480.356 357.424 480.797Z" fill="#F7F8F8"/>
</g>
<defs>
<clipPath id="clip0_2253_9467">
<rect width="421.797" height="589.744" fill="white" transform="translate(196.359) rotate(27.7243)"/>
</clipPath>
</defs>
</svg>
