<svg width="28" height="28" viewBox="0 0 28 28" fill="none" xmlns="http://www.w3.org/2000/svg">
<path fill-rule="evenodd" clip-rule="evenodd" d="M8.5683 4.68686C12.1489 4.28667 15.8505 4.28667 19.4311 4.68686C21.4293 4.91018 23.0413 6.4845 23.2759 8.49056C23.7041 12.1511 23.7041 15.8491 23.2759 19.5097C23.0413 21.5157 21.4293 23.0901 19.4311 23.3134C15.8505 23.7136 12.1489 23.7136 8.5683 23.3134C6.57012 23.0901 4.95807 21.5157 4.72345 19.5097C4.29531 15.8491 4.29531 12.1511 4.72345 8.49056C4.95807 6.4845 6.57012 4.91018 8.5683 4.68686ZM9.881 9.88139C10.2227 9.53969 10.7767 9.53969 11.1184 9.88139L13.9997 12.7627L16.881 9.8814C17.2227 9.5397 17.7767 9.5397 18.1184 9.8814C18.4602 10.2231 18.4602 10.7771 18.1184 11.1188L15.2372 14.0001L18.1184 16.8814C18.4601 17.2231 18.4601 17.7771 18.1184 18.1188C17.7767 18.4605 17.2227 18.4605 16.881 18.1188L13.9997 15.2376L11.1184 18.1188C10.7767 18.4606 10.2227 18.4605 9.88101 18.1188C9.5393 17.7771 9.5393 17.2231 9.88101 16.8814L12.7623 14.0001L9.881 11.1188C9.53929 10.7771 9.53929 10.2231 9.881 9.88139Z" fill="#E5E5EA"/>
</svg>
