<svg width="200" height="200" viewBox="0 0 200 200" fill="none" xmlns="http://www.w3.org/2000/svg">
<path fill-rule="evenodd" clip-rule="evenodd" d="M134.218 51.7318C134.992 48.5973 134.941 45.5788 135.034 42.3995C135.052 41.7786 134.563 41.2624 133.942 41.2437C133.32 41.225 132.802 41.715 132.784 42.3359C132.696 45.3507 132.767 48.2195 132.033 51.1969C131.884 51.7991 132.254 52.4088 132.857 52.5547C133.46 52.7043 134.07 52.334 134.218 51.7318Z" fill="#4B4B4E"/>
<path fill-rule="evenodd" clip-rule="evenodd" d="M140.787 57.8052C146.032 53.025 150.975 46.8758 154.429 40.6667C154.73 40.1243 154.534 39.4398 153.991 39.1406C153.448 38.8413 152.762 39.0359 152.461 39.5782C149.12 45.5816 144.341 51.5289 139.269 56.1483C138.81 56.5672 138.778 57.2779 139.197 57.7342C139.616 58.1905 140.329 58.2242 140.787 57.8052Z" fill="#4B4B4E"/>
<path fill-rule="evenodd" clip-rule="evenodd" d="M142.116 63.0265C146.913 63.8157 151.858 62.4692 156.22 60.5653C156.789 60.3147 157.049 59.6527 156.8 59.0879C156.551 58.5193 155.887 58.2612 155.318 58.5081C151.345 60.2436 146.852 61.5303 142.482 60.8122C141.869 60.7112 141.29 61.1264 141.189 61.736C141.087 62.3457 141.503 62.9255 142.116 63.0265Z" fill="#4B4B4E"/>
<path d="M44.69 50.608C44.1724 48.464 41.1228 48.464 40.6053 50.608L39.9349 53.3852C39.7499 54.1514 39.1517 54.7496 38.3855 54.9345L35.6084 55.6049C33.4643 56.1225 33.4643 59.1721 35.6084 59.6897L38.3855 60.3601C39.1517 60.545 39.7499 61.1432 39.9349 61.9094L40.6053 64.6866C41.1228 66.8306 44.1724 66.8306 44.69 64.6866L45.3604 61.9094C45.5453 61.1432 46.1436 60.545 46.9098 60.3601L49.6869 59.6897C51.8309 59.1721 51.8309 56.1225 49.6869 55.6049L46.9097 54.9345C46.1436 54.7496 45.5453 54.1514 45.3604 53.3852L44.69 50.608Z" fill="#E5E5EA"/>
<circle cx="161" cy="118" r="5" fill="#E5E5EA"/>
<path fill-rule="evenodd" clip-rule="evenodd" d="M140.62 118.4C145.356 111.516 148.069 103.352 147.999 94.6159C147.805 70.3164 126.158 50.7902 99.6485 51.0017C73.1393 51.2137 51.8072 71.0845 52.0013 95.3841C52.1954 119.683 73.8427 139.21 100.351 138.998C109.823 138.923 118.633 136.336 126.037 131.935L145.842 136.599L140.62 118.4Z" fill="#E5E5EA"/>
<path fill-rule="evenodd" clip-rule="evenodd" d="M86.9998 94.9604C87.0218 97.7214 84.8012 99.9778 82.0401 99.9998C79.2781 100.022 77.0217 97.8012 77.0002 95.0401C76.9782 92.2786 79.1984 90.0226 81.9599 90.0002C84.721 89.9782 86.9774 92.1988 86.9998 94.9604" fill="#BEBEC1"/>
<path fill-rule="evenodd" clip-rule="evenodd" d="M105 94.9599C105.022 97.7214 102.801 99.9778 100.04 99.9998C97.2781 100.022 95.0217 97.8012 95.0002 95.0401C94.9777 92.2786 97.1984 90.0222 99.9599 90.0002C102.721 89.9782 104.977 92.1988 105 94.9599" fill="#BEBEC1"/>
<path fill-rule="evenodd" clip-rule="evenodd" d="M123 94.9599C123.022 97.721 120.801 99.9774 118.04 99.9998C115.278 100.022 113.022 97.8012 113 95.0396C112.978 92.2781 115.198 90.0222 117.96 90.0002C120.721 89.9777 122.977 92.1988 123 94.9599" fill="#BEBEC1"/>
<path fill-rule="evenodd" clip-rule="evenodd" d="M47 129C47 132.176 48.0156 135.132 49.761 137.621L47.9086 144.26L55.121 142.505C57.8326 144.082 61.0481 145 64.5 145C74.1652 145 82 137.837 82 129C82 120.163 74.1652 113 64.5 113C54.8348 113 47 120.163 47 129Z" fill="url(#paint0_linear_1325_5791)"/>
<path fill-rule="evenodd" clip-rule="evenodd" d="M69 129C69 130.105 69.8949 131 70.9997 131C72.1041 131 73 130.105 73 129C73 127.896 72.1041 127 70.9997 127C69.8949 127 69 127.896 69 129" fill="white"/>
<path fill-rule="evenodd" clip-rule="evenodd" d="M63 129C63 130.105 63.8953 131 65 131C66.1042 131 67 130.105 67 129C67 127.896 66.1042 127 65 127C63.8953 127 63 127.896 63 129" fill="white"/>
<path fill-rule="evenodd" clip-rule="evenodd" d="M56 129C56 130.105 56.8953 131 58 131C59.1042 131 60 130.105 60 129C60 127.896 59.1042 127 58 127C56.8953 127 56 127.896 56 129" fill="white"/>
<path fill-rule="evenodd" clip-rule="evenodd" d="M138 156.5C138 158.433 120.539 160 99 160C77.4606 160 60 158.433 60 156.5C60 154.568 77.4606 153 99 153C120.539 153 138 154.568 138 156.5" fill="#E5E5EA"/>
<defs>
<linearGradient id="paint0_linear_1325_5791" x1="49.5577" y1="115" x2="88.4199" y2="135.067" gradientUnits="userSpaceOnUse">
<stop stop-color="#FF4369"/>
<stop offset="1" stop-color="#FF4FB8"/>
</linearGradient>
</defs>
</svg>
