<svg width="24" height="24" viewBox="0 0 24 24" fill="none" xmlns="http://www.w3.org/2000/svg">
<path d="M7.1271 6.97028L7.125 8.5625V16.4406C7.125 17.7868 8.2163 18.8781 9.5625 18.8781L16.0247 18.8784C15.793 19.5336 15.168 20.0031 14.4333 20.0031H9.5625C7.59499 20.0031 6 18.4082 6 16.4406V8.5625C6 7.82697 6.47059 7.20134 7.1271 6.97028ZM12.8463 5C13.294 5 13.7234 5.17792 14.0399 5.4946L17.5037 8.9604C17.8199 9.27684 17.9976 9.70591 17.9976 10.1533V16.4406C17.9976 17.3727 17.2421 18.1281 16.3101 18.1281H9.56431C8.63233 18.1281 7.87681 17.3727 7.87681 16.4406V6.6875C7.87681 5.75552 8.63233 5 9.56431 5H12.8463ZM12.7495 6.125H9.56431C9.25364 6.125 9.00181 6.37684 9.00181 6.6875V16.4406C9.00181 16.7513 9.25364 17.0031 9.56431 17.0031H16.3101C16.6207 17.0031 16.8726 16.7513 16.8726 16.4406L16.8723 10.2522L14.4375 10.2529C13.5443 10.2529 12.8133 9.55905 12.7539 8.68095L12.75 8.56542L12.7495 6.125ZM13.8745 6.92075L13.875 8.56542C13.875 8.85019 14.0866 9.08553 14.3611 9.12278L14.4375 9.12792L16.0803 9.12725L13.8745 6.92075Z" fill="#4B4B4E"/>
</svg>
