<svg width="201" height="200" viewBox="0 0 201 200" fill="none" xmlns="http://www.w3.org/2000/svg">
<path d="M58.19 28.608C57.6724 26.464 54.6228 26.464 54.1053 28.608L53.4349 31.3852C53.2499 32.1514 52.6517 32.7496 51.8855 32.9345L49.1084 33.6049C46.9643 34.1225 46.9643 37.1721 49.1084 37.6897L51.8855 38.3601C52.6517 38.545 53.2499 39.1432 53.4349 39.9094L54.1053 42.6866C54.6228 44.8306 57.6724 44.8306 58.19 42.6866L58.8604 39.9094C59.0453 39.1432 59.6436 38.545 60.4098 38.3601L63.1869 37.6897C65.3309 37.1721 65.3309 34.1225 63.1869 33.6049L60.4097 32.9345C59.6436 32.7496 59.0453 32.1514 58.8604 31.3852L58.19 28.608Z" fill="#E5E5EA"/>
<path fill-rule="evenodd" clip-rule="evenodd" d="M11.6784 57.9298C11.8778 57.3683 12.4946 57.0747 13.0561 57.2741C14.6589 57.8431 17.5052 57.6615 20.1648 56.6673C22.1892 55.9105 23.8259 54.7917 24.6976 53.4691C23.6263 53.7356 22.5675 53.7976 21.5913 53.5799C19.8413 53.1897 18.5435 51.9409 18.0083 49.9026C17.5406 48.1217 18.0406 46.6012 19.1294 45.5998C20.1703 44.6422 21.6511 44.2461 23.0527 44.4071C24.4753 44.5705 25.9034 45.3174 26.7986 46.7522C27.3061 47.5656 27.6132 48.5521 27.6794 49.702C30.2194 47.951 32.6547 45.1088 33.8698 41.7785C34.074 41.2188 34.6934 40.9306 35.2531 41.1348C35.8129 41.3391 36.1011 41.9584 35.8969 42.5182C34.2944 46.9101 30.8585 50.5296 27.4461 52.3744C27.4294 52.4527 27.4118 52.5314 27.3934 52.6107C26.6981 55.5971 23.8103 57.6082 20.9204 58.6885C18.0081 59.7772 14.6001 60.1121 12.3341 59.3075C11.7726 59.1082 11.479 58.4913 11.6784 57.9298ZM25.4962 50.9244C25.641 49.5162 25.3702 48.5393 24.9678 47.8944C24.4612 47.0824 23.6559 46.6484 22.8065 46.5508C21.936 46.4509 21.1061 46.7134 20.5902 47.1879C20.1221 47.6185 19.8193 48.3033 20.0953 49.3546C20.4452 50.687 21.1723 51.2756 22.0609 51.4738C22.9469 51.6713 24.137 51.5073 25.4962 50.9244Z" fill="#4B4B4E"/>
<path d="M44.3276 61.0004H174.672C175.953 61.0004 177.181 61.5723 178.086 62.5904C178.991 63.6084 179.5 64.9892 179.5 66.4289V93.5718C179.5 95.0115 178.991 96.3923 178.086 97.4104C177.181 98.4284 175.953 99.0004 174.672 99.0004H44.3276C43.0472 99.0004 41.8193 98.4284 40.914 97.4104C40.0086 96.3923 39.5 95.0115 39.5 93.5718V66.4289C39.5 64.9892 40.0086 63.6084 40.914 62.5904C41.8193 61.5723 43.0472 61.0004 44.3276 61.0004Z" fill="#E5E5EA"/>
<path d="M113.5 71.0004H87.5C85.8431 71.0004 84.5 72.3435 84.5 74.0004C84.5 75.6572 85.8431 77.0004 87.5 77.0004H113.5C115.157 77.0004 116.5 75.6572 116.5 74.0004C116.5 72.3435 115.157 71.0004 113.5 71.0004Z" fill="#F2F2F8"/>
<path d="M131.5 84.0004H87.5C85.8431 84.0004 84.5 85.3435 84.5 87.0004C84.5 88.6572 85.8431 90.0004 87.5 90.0004H131.5C133.157 90.0004 134.5 88.6572 134.5 87.0004C134.5 85.3435 133.157 84.0004 131.5 84.0004Z" fill="#F7F7F8"/>
<rect x="49.5" y="69" width="22" height="22" rx="4" stroke="#BEBEC1" stroke-width="1.6" stroke-linecap="round" stroke-linejoin="round" stroke-dasharray="4.5 4.5"/>
<path d="M160.672 109H30.3276C27.6614 109 25.5 111.431 25.5 114.429V141.572C25.5 144.57 27.6614 147 30.3276 147H160.672C163.339 147 165.5 144.57 165.5 141.572V114.429C165.5 111.431 163.339 109 160.672 109Z" fill="#E5E5EA"/>
<path d="M98.5 119H72.5C70.8431 119 69.5 120.344 69.5 122C69.5 123.657 70.8431 125 72.5 125H98.5C100.157 125 101.5 123.657 101.5 122C101.5 120.344 100.157 119 98.5 119Z" fill="#F2F2F8"/>
<path d="M116.5 132H72.5C70.8431 132 69.5 133.344 69.5 135C69.5 136.657 70.8431 138 72.5 138H116.5C118.157 138 119.5 136.657 119.5 135C119.5 133.344 118.157 132 116.5 132Z" fill="#F7F7F8"/>
<rect x="35.5" y="117" width="22" height="22" rx="4" stroke="#BEBEC1" stroke-width="1.6" stroke-linecap="round" stroke-linejoin="round" stroke-dasharray="4.5 4.5"/>
<path fill-rule="evenodd" clip-rule="evenodd" d="M141.847 136.711C134.261 144.295 122.518 145.15 113.993 139.295C112.903 138.533 111.866 137.678 110.899 136.711C110.401 136.214 109.932 135.702 109.49 135.163C108.605 134.087 107.831 132.938 107.196 131.752C106.078 129.748 105.318 127.622 104.903 125.424C103.563 118.532 105.566 111.113 110.899 105.782C116.245 100.436 123.665 98.4464 130.559 99.7727C132.755 100.2 134.883 100.961 136.887 102.066C138.076 102.715 139.208 103.489 140.287 104.373C140.824 104.814 141.336 105.285 141.833 105.782C142.801 106.749 143.67 107.785 144.417 108.876C150.275 117.398 149.418 129.141 141.847 136.711Z" fill="white" fill-opacity="0.1"/>
<path fill-rule="evenodd" clip-rule="evenodd" d="M139.723 135.217C131.832 143.11 119.043 143.108 111.15 135.217C103.267 127.334 103.267 114.543 111.16 106.652C119.043 98.7689 131.832 98.7689 139.715 106.652C147.606 114.543 147.606 127.334 139.723 135.217ZM143.774 102.597C133.645 92.4676 117.23 92.4676 107.1 102.597C96.9724 112.725 96.9636 129.15 107.092 139.28C116.311 148.496 130.761 149.327 140.924 141.76C141.917 141.02 142.873 140.19 143.785 139.28C144.695 138.368 145.525 137.412 146.263 136.419C153.831 126.254 152.992 111.815 143.774 102.597Z" fill="#BEBEC1"/>
<path fill-rule="evenodd" clip-rule="evenodd" d="M146.821 135.625L154.498 143.302L149.048 148.75L141.373 141.073C142.386 140.318 143.36 139.472 144.292 138.543C145.221 137.613 146.068 136.638 146.821 135.625Z" fill="#BEBEC1"/>
<path fill-rule="evenodd" clip-rule="evenodd" d="M134.5 103.937L107.81 130.625C106.805 128.824 106.122 126.912 105.75 124.936L128.811 101.875C130.785 102.261 132.698 102.943 134.5 103.937Z" fill="white" fill-opacity="0.5"/>
<path fill-rule="evenodd" clip-rule="evenodd" d="M177.753 171.602L177.369 171.986C174.828 174.528 170.667 174.528 168.124 171.986L144.66 148.522L154.289 138.893L177.753 162.357C180.296 164.899 180.296 169.059 177.753 171.602Z" fill="url(#paint0_linear_2324_9618)"/>
<path fill-rule="evenodd" clip-rule="evenodd" d="M143.25 110.28L114.396 137.5C113.362 136.82 112.379 136.054 111.462 135.189C110.989 134.743 110.543 134.287 110.125 133.804L139.331 106.25C139.842 106.646 140.328 107.067 140.799 107.512C141.716 108.378 142.541 109.304 143.25 110.28Z" fill="white" fill-opacity="0.5"/>
<defs>
<linearGradient id="paint0_linear_2324_9618" x1="147.218" y1="141.08" x2="187.47" y2="160.084" gradientUnits="userSpaceOnUse">
<stop stop-color="#FF4369"/>
<stop offset="1" stop-color="#FF4FB8"/>
</linearGradient>
</defs>
</svg>
