<svg width="264" height="290" viewBox="0 0 264 290" fill="none" xmlns="http://www.w3.org/2000/svg">
<g clip-path="url(#clip0_892_2278)">
<path d="M18.3037 3.574V14.949H17.3677V3.574H18.3037ZM8.8007 8.475C8.8007 7.67767 8.90036 6.98433 9.0997 6.395C9.29903 5.797 9.57636 5.33767 9.9317 5.017C10.2957 4.69633 10.7204 4.536 11.2057 4.536C11.691 4.536 12.1157 4.69633 12.4797 5.017C12.8437 5.329 13.1254 5.771 13.3247 6.343H15.1447V3.834H16.0677V14.364H15.1447V10.607H13.3247C13.1254 11.1877 12.8437 11.6383 12.4797 11.959C12.1157 12.271 11.691 12.427 11.2057 12.427C10.7204 12.427 10.2957 12.2667 9.9317 11.946C9.57636 11.6253 9.29903 11.166 9.0997 10.568C8.90036 9.97 8.8007 9.27233 8.8007 8.475ZM9.6977 8.475C9.6977 9.40233 9.83203 10.1433 10.1007 10.698C10.378 11.244 10.7464 11.517 11.2057 11.517C11.6824 11.517 12.0594 11.244 12.3367 10.698C12.614 10.1433 12.7527 9.40233 12.7527 8.475C12.7527 7.54767 12.614 6.811 12.3367 6.265C12.0594 5.719 11.6824 5.446 11.2057 5.446C10.7464 5.446 10.378 5.719 10.1007 6.265C9.83203 6.811 9.6977 7.54767 9.6977 8.475ZM15.1447 9.801V7.149H13.5327C13.602 7.58233 13.6367 8.02433 13.6367 8.475C13.6367 8.92567 13.602 9.36767 13.5327 9.801H15.1447ZM23.998 4.575V6.642C23.998 7.318 24.1367 7.98967 24.414 8.657C24.6913 9.31567 25.064 9.905 25.532 10.425C26 10.945 26.507 11.3307 27.053 11.582L26.468 12.362C25.818 12.0413 25.233 11.5603 24.713 10.919C24.193 10.269 23.7987 9.53667 23.53 8.722C23.27 9.58867 22.8757 10.3643 22.347 11.049C21.8183 11.7337 21.2203 12.2407 20.553 12.57L19.955 11.764C20.501 11.504 21.008 11.1053 21.476 10.568C21.9527 10.0307 22.3297 9.41967 22.607 8.735C22.8843 8.04167 23.023 7.344 23.023 6.642V4.575H23.998ZM28.314 3.561H29.289V14.962H28.314V3.561Z" fill="white"/>
<rect y="26" width="126" height="126" rx="8" fill="#D9D9D9"/>
<rect x="138" y="26" width="126" height="126" rx="8" fill="#D9D9D9"/>
<rect y="164" width="126" height="126" rx="8" fill="#D9D9D9"/>
<rect x="138" y="164" width="126" height="126" rx="8" fill="#D9D9D9"/>
</g>
<defs>
<clipPath id="clip0_892_2278">
<rect width="264" height="290" fill="white"/>
</clipPath>
</defs>
</svg>
