<svg width="48" height="48" viewBox="0 0 48 48" fill="none" xmlns="http://www.w3.org/2000/svg">
<circle cx="24" cy="24" r="24" fill="#4369FF"/>
<path d="M11.5 26.5C10.837 26.5 10.2011 26.2366 9.73223 25.7678C9.26339 25.2989 9 24.663 9 24C9 23.337 9.26339 22.7011 9.73223 22.2322C10.2011 21.7634 10.837 21.5 11.5 21.5H36.5C37.163 21.5 37.7989 21.7634 38.2678 22.2322C38.7366 22.7011 39 23.337 39 24C39 24.663 38.7366 25.2989 38.2678 25.7678C37.7989 26.2366 37.163 26.5 36.5 26.5H11.5Z" fill="white"/>
<path d="M21.5 11.5C21.5 10.837 21.7634 10.2011 22.2322 9.73223C22.7011 9.26339 23.337 9 24 9C24.663 9 25.2989 9.26339 25.7678 9.73223C26.2366 10.2011 26.5 10.837 26.5 11.5V36.5C26.5 37.163 26.2366 37.7989 25.7678 38.2678C25.2989 38.7366 24.663 39 24 39C23.337 39 22.7011 38.7366 22.2322 38.2678C21.7634 37.7989 21.5 37.163 21.5 36.5V11.5Z" fill="white"/>
</svg>
