<svg width="32" height="32" viewBox="0 0 32 32" fill="none" xmlns="http://www.w3.org/2000/svg">
<circle cx="16" cy="16" r="14" fill="#E5E5EA" stroke="white" stroke-width="2"/>
<path d="M10.7158 21.2836L11.3038 20.6955L10.7158 21.2836C11.0231 21.5909 11.3997 21.5853 11.572 21.5685C11.7216 21.5538 11.8907 21.5113 12.0128 21.4806C12.0228 21.4781 12.0325 21.4757 12.0418 21.4734L14.2536 20.9204C14.2686 20.9167 14.2839 20.9129 14.2997 20.909C14.4733 20.8662 14.693 20.8119 14.8945 20.6979L14.4839 19.9727L14.8945 20.6979C15.0959 20.5838 15.2555 20.4233 15.3815 20.2965C15.393 20.285 15.4041 20.2737 15.415 20.2628L21.4101 14.2678C21.4208 14.2571 21.4315 14.2464 21.4422 14.2357C21.6921 13.9859 21.935 13.7431 22.1084 13.5158C22.3038 13.2597 22.4875 12.9281 22.4875 12.5C22.4875 12.0719 22.3038 11.7403 22.1084 11.4842C21.935 11.2569 21.6921 11.0141 21.4422 10.7643C21.4315 10.7536 21.4208 10.7429 21.4101 10.7322L21.2671 10.5893L20.6872 11.1692L21.2671 10.5893C21.2564 10.5786 21.2457 10.5679 21.2351 10.5572C20.9852 10.3073 20.7424 10.0644 20.5152 9.89099C20.259 9.69555 19.9274 9.51184 19.4993 9.51184C19.0713 9.51184 18.7397 9.69555 18.4835 9.89099C18.2563 10.0644 18.0135 10.3073 17.7636 10.5572C17.753 10.5679 17.7423 10.5786 17.7316 10.5893L18.3208 11.1785L17.7316 10.5893L11.7365 16.5843C11.7256 16.5952 11.7144 16.6064 11.7029 16.6178C11.5761 16.7439 11.4156 16.9034 11.3015 17.1049L12.0216 17.5126L11.3015 17.1049C11.1874 17.3063 11.1332 17.5261 11.0904 17.6997C11.0865 17.7154 11.0827 17.7308 11.0789 17.7457L10.526 19.9575C10.5237 19.9668 10.5212 19.9765 10.5187 19.9865C10.488 20.1086 10.4455 20.2777 10.4309 20.4274C10.414 20.5996 10.4085 20.9763 10.7158 21.2836Z" stroke="#BEBEC1" stroke-width="1.66667"/>
<path d="M16.417 12.2497L18.917 10.583L21.417 13.083L19.7503 15.583L16.417 12.2497Z" fill="#BEBEC1"/>
</svg>
