<svg width="30" height="30" viewBox="0 0 30 30" fill="none" xmlns="http://www.w3.org/2000/svg">
<circle cx="15" cy="15" r="14" fill="#E5E5EA" stroke="white" stroke-width="2"/>
<path d="M10.5 23C10.0875 23 9.73425 22.8413 9.44025 22.524C9.14625 22.2067 8.9995 21.8256 9 21.381V13.2857C9 12.8405 9.147 12.4592 9.441 12.1419C9.735 11.8245 10.088 11.6661 10.5 11.6667H11.25V10.0476C11.25 8.92778 11.6158 7.97308 12.3473 7.18352C13.0788 6.39397 13.963 5.99946 15 6C16.0375 6 16.922 6.39478 17.6535 7.18433C18.385 7.97389 18.7505 8.92832 18.75 10.0476V11.6667H19.5C19.9125 11.6667 20.2657 11.8253 20.5597 12.1427C20.8537 12.46 21.0005 12.841 21 13.2857V21.381C21 21.8262 20.853 22.2075 20.559 22.5248C20.265 22.8421 19.912 23.0005 19.5 23H10.5ZM15 18.9524C15.4125 18.9524 15.7657 18.7937 16.0597 18.4764C16.3537 18.159 16.5005 17.778 16.5 17.3333C16.5 16.8881 16.353 16.5068 16.059 16.1895C15.765 15.8721 15.412 15.7137 15 15.7143C14.5875 15.7143 14.2343 15.873 13.9403 16.1903C13.6463 16.5076 13.4995 16.8886 13.5 17.3333C13.5 17.7786 13.647 18.1599 13.941 18.4772C14.235 18.7945 14.588 18.9529 15 18.9524ZM12.75 11.6667H17.25V10.0476C17.25 9.37302 17.0312 8.7996 16.5937 8.32738C16.1562 7.85516 15.625 7.61905 15 7.61905C14.375 7.61905 13.8438 7.85516 13.4063 8.32738C12.9688 8.7996 12.75 9.37302 12.75 10.0476V11.6667Z" fill="#979797"/>
</svg>
