<svg width="20" height="20" viewBox="0 0 20 20" fill="none" xmlns="http://www.w3.org/2000/svg">
<g clip-path="url(#clip0_2076_9411)">
<path d="M9.37161 18.0012C4.73719 11.2827 3.87695 10.5932 3.87695 8.12402C3.87695 4.74181 6.61876 2 10.001 2C13.3832 2 16.125 4.74181 16.125 8.12402C16.125 10.5932 15.2648 11.2827 10.6303 18.0012C10.3262 18.4406 9.6757 18.4405 9.37161 18.0012ZM10.001 10.6757C11.4102 10.6757 12.5527 9.53328 12.5527 8.12402C12.5527 6.71476 11.4102 5.57235 10.001 5.57235C8.59172 5.57235 7.4493 6.71476 7.4493 8.12402C7.4493 9.53328 8.59172 10.6757 10.001 10.6757Z"/>
</g>
<defs>
<clipPath id="clip0_2076_9411">
<rect width="12.248" height="16.3307" fill="white" transform="translate(3.875 2)"/>
</clipPath>
</defs>
</svg>
