<svg width="28" height="28" viewBox="0 0 28 28" fill="none" xmlns="http://www.w3.org/2000/svg">
<path fill-rule="evenodd" clip-rule="evenodd" d="M16.783 18.0201C13.691 20.4966 9.16497 20.3017 6.29872 17.4354C3.22334 14.36 3.22334 9.37386 6.29872 6.29848C9.3741 3.2231 14.3603 3.2231 17.4357 6.29848C20.3019 9.16472 20.4968 13.6907 18.0204 16.7827L24.0353 22.7976C24.377 23.1393 24.377 23.6933 24.0353 24.035C23.6936 24.3768 23.1396 24.3768 22.7979 24.035L16.783 18.0201ZM7.53616 16.198C5.1442 13.806 5.1442 9.92788 7.53616 7.53591C9.92812 5.14395 13.8063 5.14395 16.1982 7.53591C18.5884 9.92612 18.5902 13.8003 16.2035 16.1927C16.2017 16.1944 16.2 16.1962 16.1982 16.1979C16.1964 16.1997 16.1947 16.2015 16.193 16.2032C13.8006 18.5899 9.92637 18.5882 7.53616 16.198Z" fill="black"/>
</svg>
