<svg width="200" height="200" viewBox="0 0 200 200" fill="none" xmlns="http://www.w3.org/2000/svg">
<rect width="200" height="200" fill="white"/>
<path d="M181.689 149.059C181.171 146.915 178.122 146.915 177.604 149.059L176.934 151.836C176.749 152.603 176.151 153.201 175.385 153.386L172.607 154.056C170.463 154.574 170.463 157.623 172.607 158.141L175.385 158.811C176.151 158.996 176.749 159.594 176.934 160.361L177.604 163.138C178.122 165.282 181.171 165.282 181.689 163.138L182.359 160.361C182.544 159.594 183.143 158.996 183.909 158.811L186.686 158.141C188.83 157.623 188.83 154.574 186.686 154.056L183.909 153.386C183.143 153.201 182.544 152.603 182.359 151.836L181.689 149.059Z" fill="#E5E5EA"/>
<path fill-rule="evenodd" clip-rule="evenodd" d="M11.1784 57.9296C11.3778 57.368 11.9946 57.0744 12.5561 57.2738C14.1589 57.8429 17.0052 57.6612 19.6648 56.6671C21.6892 55.9103 23.3259 54.7914 24.1976 53.4688C23.1263 53.7354 22.0675 53.7973 21.0913 53.5796C19.3413 53.1894 18.0435 51.9406 17.5083 49.9024C17.0406 48.1215 17.5406 46.601 18.6294 45.5995C19.6703 44.642 21.1512 44.2458 22.5527 44.4069C23.9753 44.5703 25.4034 45.3171 26.2986 46.7519C26.8061 47.5653 27.1132 48.5518 27.1794 49.7018C29.7194 47.9508 32.1547 45.1085 33.3698 41.7783C33.574 41.2185 34.1934 40.9303 34.7531 41.1346C35.3129 41.3388 35.6011 41.9582 35.3969 42.5179C33.7944 46.9099 30.3585 50.5294 26.9461 52.3741C26.9294 52.4524 26.9118 52.5312 26.8934 52.6105C26.1981 55.5969 23.3103 57.608 20.4204 58.6883C17.5081 59.7769 14.1001 60.1118 11.8341 59.3073C11.2726 59.1079 10.979 58.4911 11.1784 57.9296ZM24.9962 50.9241C25.141 49.516 24.8702 48.5391 24.4678 47.8942C23.9612 47.0821 23.1559 46.6482 22.3065 46.5506C21.436 46.4506 20.6061 46.7132 20.0902 47.1877C19.6221 47.6182 19.3193 48.303 19.5953 49.3543C19.9452 50.6868 20.6723 51.2754 21.5609 51.4735C22.4469 51.6711 23.637 51.507 24.9962 50.9241Z" fill="#4B4B4E"/>
<path d="M43.8276 61H174.172C175.453 61 176.681 61.5719 177.586 62.59C178.491 63.608 179 64.9888 179 66.4286V93.5714C179 95.0112 178.491 96.392 177.586 97.41C176.681 98.4281 175.453 99 174.172 99H43.8276C42.5472 99 41.3193 98.4281 40.414 97.41C39.5086 96.392 39 95.0112 39 93.5714V66.4286C39 64.9888 39.5086 63.608 40.414 62.59C41.3193 61.5719 42.5472 61 43.8276 61Z" fill="#E5E5EA"/>
<path d="M113 71H87C85.3431 71 84 72.3431 84 74C84 75.6569 85.3431 77 87 77H113C114.657 77 116 75.6569 116 74C116 72.3431 114.657 71 113 71Z" fill="#F2F2F8"/>
<path d="M131 84H87C85.3431 84 84 85.3431 84 87C84 88.6569 85.3431 90 87 90H131C132.657 90 134 88.6569 134 87C134 85.3431 132.657 84 131 84Z" fill="#BEBEC1"/>
<path d="M75 80C75 72.268 68.732 66 61 66C53.268 66 47 72.268 47 80C47 87.732 53.268 94 61 94C68.732 94 75 87.732 75 80Z" fill="url(#paint0_linear_1325_5996)"/>
<path d="M66.8334 74.1773C66.4863 73.821 65.9725 73.6883 65.4934 73.828L54.3219 77.0767C53.8165 77.2171 53.4582 77.6202 53.3617 78.1323C53.2631 78.6535 53.6075 79.3151 54.0574 79.5918L57.5505 81.7387C57.9087 81.9587 58.3711 81.9035 58.6676 81.6045L62.6675 77.5797C62.8689 77.3701 63.2022 77.3701 63.4035 77.5797C63.6049 77.7823 63.6049 78.1107 63.4035 78.3202L59.3966 82.3458C59.0995 82.6441 59.0439 83.1087 59.2626 83.4692L61.397 86.9973C61.6469 87.4165 62.0774 87.654 62.5495 87.654C62.6051 87.654 62.6675 87.654 62.7231 87.647C63.2647 87.5771 63.6951 87.2069 63.8548 86.6829L67.1667 75.5257C67.3125 75.0506 67.1806 74.5337 66.8334 74.1773Z" fill="white"/>
<path d="M160.172 109H29.8276C27.1614 109 25 111.43 25 114.429V141.571C25 144.57 27.1614 147 29.8276 147H160.172C162.839 147 165 144.57 165 141.571V114.429C165 111.43 162.839 109 160.172 109Z" fill="#E5E5EA"/>
<path d="M98 119H72C70.3431 119 69 120.343 69 122C69 123.657 70.3431 125 72 125H98C99.6569 125 101 123.657 101 122C101 120.343 99.6569 119 98 119Z" fill="#F2F2F8"/>
<path d="M116 132H72C70.3431 132 69 133.343 69 135C69 136.657 70.3431 138 72 138H116C117.657 138 119 136.657 119 135C119 133.343 117.657 132 116 132Z" fill="#BEBEC1"/>
<path d="M60 128C60 120.268 53.732 114 46 114C38.268 114 32 120.268 32 128C32 135.732 38.268 142 46 142C53.732 142 60 135.732 60 128Z" fill="url(#paint1_linear_1325_5996)"/>
<path d="M51.8334 122.177C51.4863 121.821 50.9725 121.688 50.4934 121.828L39.3219 125.077C38.8165 125.217 38.4582 125.62 38.3617 126.132C38.2631 126.653 38.6075 127.315 39.0574 127.592L42.5505 129.739C42.9087 129.959 43.3711 129.904 43.6676 129.605L47.6675 125.58C47.8689 125.37 48.2022 125.37 48.4035 125.58C48.6049 125.782 48.6049 126.111 48.4035 126.32L44.3966 130.346C44.0995 130.644 44.0439 131.109 44.2626 131.469L46.397 134.997C46.6469 135.416 47.0774 135.654 47.5495 135.654C47.6051 135.654 47.6675 135.654 47.7231 135.647C48.2647 135.577 48.6951 135.207 48.8548 134.683L52.1667 123.526C52.3125 123.051 52.1806 122.534 51.8334 122.177Z" fill="white"/>
<defs>
<linearGradient id="paint0_linear_1325_5996" x1="47" y1="66" x2="53.9133" y2="98.8375" gradientUnits="userSpaceOnUse">
<stop stop-color="#4369FF"/>
<stop offset="1" stop-color="#0042F0"/>
</linearGradient>
<linearGradient id="paint1_linear_1325_5996" x1="32" y1="114" x2="38.9133" y2="146.837" gradientUnits="userSpaceOnUse">
<stop stop-color="#4369FF"/>
<stop offset="1" stop-color="#0042F0"/>
</linearGradient>
</defs>
</svg>
