<svg width="16" height="16" viewBox="0 0 16 16" fill="none" xmlns="http://www.w3.org/2000/svg">
<path d="M10.4055 12.0509C10.4601 12.1251 10.4926 12.2131 10.4992 12.3049C10.5059 12.3967 10.4864 12.4885 10.443 12.5697C10.4002 12.6504 10.3363 12.7179 10.2582 12.7652C10.1801 12.8125 10.0906 12.8378 9.99927 12.8384H0.999274C0.907945 12.8378 0.818479 12.8125 0.740358 12.7652C0.662236 12.7179 0.598369 12.6504 0.555524 12.5697C0.512167 12.4885 0.49268 12.3967 0.499316 12.3049C0.505952 12.2131 0.538441 12.1251 0.593024 12.0509C1.29182 11.0517 2.27988 10.2905 3.42427 9.86969C2.75343 9.42406 2.24389 8.77429 1.97104 8.01655C1.69819 7.2588 1.67654 6.43335 1.90929 5.66235C2.14204 4.89135 2.61682 4.21576 3.26338 3.73557C3.90993 3.25538 4.69391 2.99609 5.49927 2.99609C6.30464 2.99609 7.08861 3.25538 7.73517 3.73557C8.38173 4.21576 8.85651 4.89135 9.08926 5.66235C9.32201 6.43335 9.30036 7.2588 9.02751 8.01655C8.75466 8.77429 8.24511 9.42406 7.57427 9.86969C8.71867 10.2905 9.70672 11.0517 10.4055 12.0509V12.0509ZM15.5055 12.0509C14.8028 11.053 13.8132 10.2922 12.668 9.86969C13.341 9.42575 13.8527 8.77643 14.1269 8.01831C14.4012 7.26019 14.4234 6.43379 14.1903 5.66203C13.9571 4.89027 13.4811 4.21439 12.833 3.73493C12.1848 3.25547 11.3992 2.99804 10.593 3.00094C10.2489 3.00277 9.90653 3.04898 9.57427 3.13844C9.49623 3.16188 9.42491 3.20359 9.36621 3.26012C9.30751 3.31664 9.26314 3.38634 9.23677 3.46344C9.21162 3.53991 9.20531 3.62133 9.21837 3.70076C9.23143 3.78019 9.26347 3.8553 9.31177 3.91969C9.87703 4.67918 10.2018 5.5906 10.2441 6.5364C10.2864 7.48221 10.0444 8.419 9.54927 9.22594C9.48578 9.33317 9.46406 9.46004 9.48828 9.58228C9.5125 9.70452 9.58094 9.81353 9.68052 9.88844C9.86802 10.0343 10.0493 10.1843 10.2243 10.3384L10.2555 10.3697C10.9227 10.987 11.4639 11.7278 11.8493 12.5509C11.8888 12.637 11.9523 12.7098 12.0321 12.7608C12.1118 12.8118 12.2046 12.8387 12.2993 12.8384H15.093C15.1844 12.8378 15.2738 12.8125 15.3519 12.7652C15.4301 12.7179 15.4939 12.6504 15.5368 12.5697C15.5796 12.4887 15.5994 12.3974 15.5938 12.3059C15.5883 12.2145 15.5578 12.1262 15.5055 12.0509V12.0509Z" fill="#8E8E93"/>
</svg>
