<svg width="16" height="16" viewBox="0 0 16 16" fill="#8E8E93" xmlns="http://www.w3.org/2000/svg">
<path d="M6.74349 6.53255C6.74349 5.8377 7.30678 5.27442 8.00163 5.27442C8.69648 5.27442 9.25977 5.8377 9.25977 6.53255C9.25977 7.22741 8.69648 7.79069 8.00163 7.79069C7.30678 7.79069 6.74349 7.22741 6.74349 6.53255Z"/>
<path fill-rule="evenodd" clip-rule="evenodd" d="M2.96908 6.53255C2.96908 3.75315 5.22223 1.5 8.00163 1.5C10.781 1.5 13.0342 3.75315 13.0342 6.53255C13.0342 7.51907 12.7503 8.43929 12.2598 9.21599L14.2201 12.6113C14.3259 12.7946 14.3147 13.0228 14.1914 13.1949C14.0681 13.367 13.8556 13.451 13.648 13.4097L11.7672 13.0357L11.1506 14.8515C11.0826 15.052 10.9035 15.1941 10.6929 15.2148C10.4822 15.2355 10.2789 15.1311 10.1731 14.9478L8.21746 11.5606C8.1459 11.5636 8.07394 11.5651 8.00163 11.5651C7.92933 11.5651 7.85737 11.5636 7.78581 11.5606L5.83019 14.9478C5.72446 15.1309 5.52144 15.2354 5.31098 15.2149C5.10051 15.1944 4.92145 15.0527 4.85303 14.8527L4.23335 13.0405L2.35415 13.4099C2.14666 13.4507 1.93448 13.3665 1.8115 13.1944C1.68852 13.0224 1.67745 12.7944 1.78318 12.6113L3.74343 9.216C3.25294 8.4393 2.96908 7.51907 2.96908 6.53255ZM4.46872 10.1166C5.06706 10.7064 5.81239 11.1476 6.64478 11.3801L5.48952 13.3811L5.10144 12.2462C5.01418 11.991 4.75184 11.8395 4.48723 11.8916L3.31036 12.1229L4.46872 10.1166ZM9.35849 11.3801L10.512 13.3781L10.898 12.2413C10.985 11.9851 11.2484 11.833 11.5137 11.8858L12.6912 12.1199L11.5345 10.1166C10.9362 10.7064 10.1909 11.1476 9.35849 11.3801ZM8.00163 4.19601C6.71119 4.19601 5.66509 5.24212 5.66509 6.53255C5.66509 7.82299 6.71119 8.8691 8.00163 8.8691C9.29207 8.8691 10.3382 7.82299 10.3382 6.53255C10.3382 5.24212 9.29207 4.19601 8.00163 4.19601Z"/>
</svg>
